<svg id="Capa_1" data-name="Capa 1" xmlns="http://www.w3.org/2000/svg" viewBox="0 0 289.82 103.48"><defs><style>.cls-1{fill:#fff;stroke:#000;stroke-miterlimit:10;}</style></defs><path class="cls-1" d="M6,99.87H27.45v1.31H21.13v39.1h2.15a10.71,10.71,0,0,0,8.07-3.1,36.42,36.42,0,0,0,6.11-9.53h1.25l-1.13,13.94H6v-1.31H9.51v-39.1H6Z" transform="translate(-5.49 -98.71)"/><path class="cls-1" d="M66,140.46l-4.35-12.87H49.86l-4.59,12.87h4.47v1.13H40.62v-1.13h2.8L56.77,104.2a7.16,7.16,0,0,1,6.74-4.69h0l15,41h2.75v1.13H61.78v-1.13Zm-10-29.8-5.6,15.61H61.19Z" transform="translate(-5.49 -98.71)"/><path class="cls-1" d="M100.41,140.94a9,9,0,0,0,5.27-1.61,5.54,5.54,0,0,0,2.3-4.86,5.74,5.74,0,0,0-2.47-5,23.88,23.88,0,0,0-7-3,49.09,49.09,0,0,1-6.62-2.23,17.47,17.47,0,0,1-3.9-2.51q-3.69-3.09-3.7-9.59A12.5,12.5,0,0,1,88,103q3.78-3.82,10.34-3.82a25.17,25.17,0,0,1,6.59.93,24.57,24.57,0,0,0,4.26.92c.56,0,1-.4,1.49-1.19h.66l.41,12h-1a37,37,0,0,0-6-8.32,9.51,9.51,0,0,0-6.8-3.13,8.62,8.62,0,0,0-5.69,1.7,5.64,5.64,0,0,0-2,4.53A4.85,4.85,0,0,0,92.75,111a21.69,21.69,0,0,0,5.93,2.48c2.34.63,3.88,1.07,4.62,1.31s1.65.57,2.74,1a14.57,14.57,0,0,1,2.68,1.31,19.89,19.89,0,0,1,2.21,1.73,8.36,8.36,0,0,1,1.82,2.3,15.24,15.24,0,0,1-2.42,17.14,14.56,14.56,0,0,1-10.58,3.9A39.89,39.89,0,0,1,92,141.3c-2.92-.6-4.54-.9-4.85-.9-.56,0-1.1.6-1.61,1.79h-.84L84.08,128h1a32.56,32.56,0,0,0,6.71,9.06Q95.88,140.95,100.41,140.94Z" transform="translate(-5.49 -98.71)"/><path d="M6.49,148.94h27v1.65h-8v49.2h2.7q6.38,0,10.16-3.9t7.69-12h1.57l-1.42,17.55H6.49v-1.65h4.42v-49.2H6.49Z" transform="translate(-5.49 -98.71)"/><path d="M82,200l-5.47-16.21H61.69L55.91,200h5.63v1.42H50.06V200h3.53l17.06-46a8.53,8.53,0,0,1,8-5.56h.22L97.76,200h3.45v1.42H76.69V200Zm-12.6-37.5-7,19.65H75.94Z" transform="translate(-5.49 -98.71)"/><path d="M120.6,196q2.36,3.68,8.51,3.68t9.45-3.83q3.3-3.82,3.3-11.62v-33.9H137v-1.43h10.95v1.43h-4.13v33.37q0,9.3-4.12,13.88t-14.59,4.57q-10.47,0-16-4.35t-5.51-14.92V150.37H99.49v-1.43h23.62v1.43h-4.87v35.1Q118.24,192.37,120.6,196Z" transform="translate(-5.49 -98.71)"/><path d="M173.73,174.89h-4V200h4.88v1.42H150.26V200h4.88V150.37h-4.88v-1.43h22.65q9.75,0,13.84,1a14.34,14.34,0,0,1,5.73,2.44q3.61,2.93,3.61,9.3t-3.15,9.11q-3.15,2.74-9.6,3.26v.23q6.07.83,8.47,3.6t2.4,9.3v4a21.8,21.8,0,0,0,.41,5.25,1.72,1.72,0,0,0,1.77,1.35,2.42,2.42,0,0,0,2.13-1.24,12.9,12.9,0,0,0,1.46-5.22l1.28.16c-.26,4.53-1.51,7.1-2.89,8.55s-4.11,2.17-8.21,2.17-7-1-8.74-2.89-2.58-5.53-2.58-10.83V183a13.23,13.23,0,0,0-1.09-6.15C177,175.54,175.69,174.89,173.73,174.89Zm-4-24.52v23.1h2.4q4.28,0,6.34-2.63t2.06-8.55v-2.17c0-4-.66-6.57-2-7.84s-3.44-1.91-6.34-1.91Z" transform="translate(-5.49 -98.71)"/><path d="M234.48,200,229,183.81H214.16L208.38,200H214v1.42H202.53V200h3.53l17-45.76a8.85,8.85,0,0,1,8.29-5.77h0L250.23,200h3.45v1.42H229.16V200Zm-12.6-37.5-7,19.65h13.58Z" transform="translate(-5.49 -98.71)"/><path d="M277.76,200.62a11.3,11.3,0,0,0,6.64-2,7,7,0,0,0,2.88-6.11,7.15,7.15,0,0,0-3.11-6.26,29.46,29.46,0,0,0-8.85-3.79,61.3,61.3,0,0,1-8.32-2.81,22,22,0,0,1-4.92-3.15q-4.65-3.9-4.65-12.08a15.7,15.7,0,0,1,4.77-11.47q4.76-4.8,13-4.8a31.65,31.65,0,0,1,8.29,1.16,30.88,30.88,0,0,0,5.36,1.16c.7,0,1.32-.5,1.87-1.5h.83l.52,15.15h-1.2a46.53,46.53,0,0,0-7.53-10.46,11.93,11.93,0,0,0-8.55-3.94q-4.62,0-7.17,2.14a7,7,0,0,0-2.55,5.7,6.11,6.11,0,0,0,3,5.47,27.37,27.37,0,0,0,7.46,3.12q4.43,1.2,5.82,1.65c.92.29,2.07.71,3.45,1.23a18.26,18.26,0,0,1,3.37,1.65,23.82,23.82,0,0,1,2.78,2.18,10.31,10.31,0,0,1,2.28,2.89,17.17,17.17,0,0,1,2,8.55q0,8.1-5.06,13t-13.32,4.91a49.52,49.52,0,0,1-9.78-1.13q-5.52-1.12-6.12-1.12c-.7,0-1.37.75-2,2.25H258l-.75-17.85h1.27a41.32,41.32,0,0,0,8.44,11.4Q272.07,200.62,277.76,200.62Z" transform="translate(-5.49 -98.71)"/></svg>