<svg id="Capa_1" data-name="Capa 1" xmlns="http://www.w3.org/2000/svg" viewBox="0 0 289.74 103.53"><defs><style>.cls-1{fill:none;stroke:#000;stroke-miterlimit:10;}</style></defs><path class="cls-1" d="M.51,1.16H22V2.47H15.64v39.1h2.15a10.69,10.69,0,0,0,8.07-3.1A36.46,36.46,0,0,0,32,28.94h1.25L32.09,42.88H.51V41.57H4V2.47H.51Z" transform="translate(-0.01 0.03)"/><path class="cls-1" d="M60.51,41.75,56.16,28.88H44.37L39.78,41.75h4.47v1.13H35.13V41.75h2.8L51.28,5.49A7.16,7.16,0,0,1,58,.8h0l15,41h2.75v1.13H56.29V41.8ZM50.51,12l-5.6,15.61H55.7Z" transform="translate(-0.01 0.03)"/><path class="cls-1" d="M94.92,42.23a9,9,0,0,0,5.27-1.61,5.55,5.55,0,0,0,2.3-4.86,5.74,5.74,0,0,0-2.47-5,23.86,23.86,0,0,0-7-3,49.52,49.52,0,0,1-6.62-2.23A17.2,17.2,0,0,1,82.5,23q-3.69-3.09-3.7-9.59a12.48,12.48,0,0,1,3.71-9.14Q86.29.47,92.85.47a25.33,25.33,0,0,1,6.59.93,24.88,24.88,0,0,0,4.26.92c.56,0,1-.4,1.49-1.19h.66l.41,12h-1a36.71,36.71,0,0,0-6-8.32,9.5,9.5,0,0,0-6.8-3.13,8.61,8.61,0,0,0-5.69,1.7,5.63,5.63,0,0,0-2,4.53,4.86,4.86,0,0,0,2.49,4.38,21.61,21.61,0,0,0,5.93,2.48c2.34.63,3.88,1.07,4.62,1.31s1.65.57,2.74,1a14.15,14.15,0,0,1,2.68,1.31,19.34,19.34,0,0,1,2.21,1.73,8.3,8.3,0,0,1,1.82,2.3,15.24,15.24,0,0,1-2.42,17.14,14.56,14.56,0,0,1-10.58,3.9,40.35,40.35,0,0,1-7.75-.87c-2.92-.6-4.54-.9-4.85-.9-.56,0-1.1.6-1.61,1.79h-.84l-.62-14.19h1a32.44,32.44,0,0,0,6.71,9.06Q90.4,42.24,94.92,42.23Z" transform="translate(-0.01 0.03)"/><path d="M1,50.23H28v1.65H20v49.2h2.7q6.38,0,10.16-3.9t7.69-12h1.57L40.7,102.73H1v-1.65H5.42V51.88H1Z" transform="translate(-0.01 0.03)"/><path d="M76.51,101.29,71,85.08H56.2l-5.78,16.21h5.63v1.42H44.57v-1.42H48.1l17.06-46a8.53,8.53,0,0,1,8-5.56h.22l18.89,51.56h3.45v1.42H71.2v-1.42Zm-12.6-37.5-7,19.65H70.45Z" transform="translate(-0.01 0.03)"/><path d="M115.11,97.29q2.36,3.67,8.51,3.68t9.45-3.83q3.3-3.83,3.3-11.62V51.62h-4.86V50.19h11v1.43h-4.13V85q0,9.3-4.12,13.88t-14.59,4.57q-10.47,0-16-4.35T98.11,84.17V51.66H94V50.23h23.62v1.43h-4.87v35.1Q112.75,93.66,115.11,97.29Z" transform="translate(-0.01 0.03)"/><path d="M168.24,76.18h-4v25.11h4.88v1.42H144.77v-1.42h4.88V51.66h-4.88V50.23h22.65q9.75,0,13.84,1A14.32,14.32,0,0,1,187,53.67q3.62,2.92,3.61,9.3t-3.15,9.11q-3.15,2.74-9.6,3.26v.23q6.08.83,8.47,3.6t2.4,9.3v4a21.53,21.53,0,0,0,.41,5.25,1.73,1.73,0,0,0,1.77,1.35A2.42,2.42,0,0,0,193,97.83a12.92,12.92,0,0,0,1.46-5.22l1.28.16c-.26,4.53-1.51,7.1-2.89,8.55s-4.11,2.17-8.21,2.17-7-1-8.74-2.89-2.58-5.53-2.58-10.83V84.29a13.24,13.24,0,0,0-1.09-6.15C171.51,76.83,170.2,76.18,168.24,76.18Zm-4-24.52v23.1h2.4c2.85,0,5-.88,6.34-2.63s2.06-4.6,2.06-8.55V61.41c0-4-.66-6.57-2-7.84s-3.44-1.91-6.34-1.91Z" transform="translate(-0.01 0.03)"/><path d="M229,101.29,223.51,85.1H208.67l-5.78,16.19h5.62v1.42H197v-1.42h3.53l17-45.76a8.84,8.84,0,0,1,8.29-5.77h0l18.88,51.53h3.45v1.42H223.67v-1.42Zm-12.6-37.5-7,19.65H223Z" transform="translate(-0.01 0.03)"/><path d="M272.27,101.91a11.24,11.24,0,0,0,6.64-2,7,7,0,0,0,2.88-6.11,7.14,7.14,0,0,0-3.11-6.26,29.43,29.43,0,0,0-8.85-3.79,62.13,62.13,0,0,1-8.32-2.81,22.27,22.27,0,0,1-4.92-3.15q-4.65-3.9-4.65-12.08a15.7,15.7,0,0,1,4.77-11.47q4.76-4.8,13-4.8A31.84,31.84,0,0,1,278,50.6a31.61,31.61,0,0,0,5.36,1.16c.7,0,1.32-.5,1.87-1.5h.83l.52,15.15h-1.2A46.51,46.51,0,0,0,277.85,55,12,12,0,0,0,269.3,51q-4.62,0-7.17,2.14a7,7,0,0,0-2.55,5.7,6.1,6.1,0,0,0,3,5.47A27.32,27.32,0,0,0,270,67.44q4.43,1.2,5.82,1.65c.92.29,2.07.71,3.45,1.23A18.15,18.15,0,0,1,282.68,72a24.48,24.48,0,0,1,2.78,2.18A10.3,10.3,0,0,1,287.74,77a17.08,17.08,0,0,1,2,8.55q0,8.1-5.06,13t-13.32,4.91a49.46,49.46,0,0,1-9.78-1.13q-5.52-1.12-6.12-1.12c-.7,0-1.37.75-2,2.25h-1l-.75-17.85H253a41.45,41.45,0,0,0,8.44,11.4Q266.58,101.91,272.27,101.91Z" transform="translate(-0.01 0.03)"/></svg>